<svg width="498" height="556" viewBox="0 0 498 556" fill="none" xmlns="http://www.w3.org/2000/svg">
<g clip-path="url(#clip0)">
<path d="M277.171 106.429C267.712 90.4492 249 89.7045 249 89.7045C249 89.7045 230.766 87.373 219.069 111.71C208.166 134.394 193.119 156.295 216.646 161.606L220.896 148.38L223.528 162.59C226.877 162.831 230.238 162.889 233.594 162.762C258.79 161.949 282.785 163 282.013 153.96C280.986 141.943 286.272 121.804 277.171 106.429Z" fill="#2F2E41"/>
<path d="M251.173 350.485C277.551 350.485 298.934 345.521 298.934 339.399C298.934 333.276 277.551 328.313 251.173 328.313C224.795 328.313 203.412 333.276 203.412 339.399C203.412 345.521 224.795 350.485 251.173 350.485Z" fill="#3F3D56"/>
<path d="M289.49 475.42L243.434 478.825L243.56 480.525L289.616 477.12L289.49 475.42Z" fill="#2F2E41"/>
<path d="M213.204 469.55L212.382 471.045L229.44 480.425L230.262 478.931L213.204 469.55Z" fill="#2F2E41"/>
<path d="M261.408 463.475H246.056V465.181H261.408V463.475Z" fill="#2F2E41"/>
<path d="M205.969 554.779L204.266 554.663L217.06 356.822L218.762 356.938L205.969 554.779Z" fill="#2F2E41"/>
<path d="M269.084 554.763L260.556 360.333L262.26 360.25L270.788 554.679L269.084 554.763Z" fill="#2F2E41"/>
<path d="M286.139 358.516L284.438 358.656L300.643 554.791L302.343 554.651L286.139 358.516Z" fill="#2F2E41"/>
<path d="M290.405 396.107C290.405 396.107 278.465 418.279 270.789 418.279C263.113 418.279 263.966 432.776 265.672 436.187C267.378 439.598 271.642 447.273 264.819 458.359C262.436 462.231 262.862 466.624 264.426 470.701C268.808 482.123 285.854 478.663 285.31 466.441C285.304 466.306 285.297 466.17 285.288 466.034C284.435 452.39 291.258 431.071 298.081 425.954C304.904 420.837 310.875 407.193 310.875 407.193L290.405 396.107Z" fill="#FFB8B8"/>
<path d="M208.529 390.991C208.529 390.991 220.469 413.163 228.145 413.163C235.821 413.163 234.968 427.659 233.263 431.071C231.557 434.482 227.292 442.156 234.115 453.242C236.499 457.115 236.072 461.507 234.508 465.584C230.126 477.007 213.081 473.546 213.625 461.324C213.631 461.189 213.638 461.054 213.646 460.917C214.499 447.273 207.676 425.954 200.853 420.837C194.03 415.721 188.06 402.077 188.06 402.077L208.529 390.991Z" fill="#FFB8B8"/>
<path d="M217.911 281.837L212.793 292.923C212.793 292.923 137.74 317.653 144.563 346.647C151.386 375.641 184.648 420.837 189.766 419.132C194.883 417.426 222.175 412.31 223.028 397.813C223.881 383.316 203.412 357.733 203.412 357.733L231.557 332.15L272.512 331.298L307.463 357.733C307.463 357.733 270.789 390.138 286.994 402.929C303.199 415.721 327.079 424.248 330.491 419.132C333.902 414.015 372.282 338.12 366.312 331.298C360.342 324.475 299.787 298.893 299.787 298.893L283.582 275.868L220.469 272.457L217.911 281.837Z" fill="#2F2E41"/>
<path d="M233.263 141.132C233.263 141.132 237.527 169.273 228.998 172.684C220.469 176.095 246.056 190.592 246.056 190.592H260.555L269.936 170.979C269.936 170.979 261.408 155.629 266.525 141.132C271.642 126.635 233.263 141.132 233.263 141.132Z" fill="#FFB8B8"/>
<path opacity="0.1" d="M233.263 141.132C233.263 141.132 237.527 169.273 228.998 172.684C220.469 176.095 246.056 190.592 246.056 190.592H260.555L269.936 170.979C269.936 170.979 261.408 155.629 266.525 141.132C271.642 126.635 233.263 141.132 233.263 141.132Z" fill="black"/>
<path d="M227.292 165.009C227.292 165.009 236.674 175.242 238.38 176.948C240.086 178.653 247.761 188.034 263.966 174.39C280.171 160.745 281.877 176.948 281.877 176.948V279.279C281.877 279.279 268.231 273.31 257.143 279.279C246.056 285.248 223.028 277.574 223.028 277.574L218.764 171.831L227.292 165.009Z" fill="#001AFF" fill-opacity="0.63"/>
<path d="M233.557 165.009C233.557 165.009 225.587 161.598 218.764 165.009C211.941 168.42 188.06 185.475 189.766 193.15C191.471 200.825 213.646 254.549 198.294 280.132C182.943 305.715 180.384 312.537 180.384 312.537L217.911 292.923C217.911 292.923 246.909 275.015 244.35 263.929C241.791 252.844 233.557 165.009 233.557 165.009Z" fill="#3F3D56"/>
<path d="M267.388 165.009C267.388 165.009 285.288 166.715 286.141 168.42C286.994 170.126 313.007 177.374 311.301 185.049C309.595 192.724 286.141 261.371 296.376 274.163C306.61 286.954 323.668 304.862 317.698 306.567C311.727 308.273 301.493 304.009 291.258 306.567C281.024 309.126 257.143 287.807 259.702 264.782C262.26 241.758 259.722 170.979 267.388 165.009Z" fill="#3F3D56"/>
<path d="M224.734 327.887V336.414C224.734 336.414 220.469 356.028 234.115 355.175C247.762 354.322 239.233 331.298 239.233 331.298L238.38 323.623L224.734 327.887Z" fill="#FFB8B8"/>
<path d="M263.113 328.739C263.113 328.739 253.732 348.353 263.113 350.058C272.495 351.764 279.318 338.972 279.318 335.561C279.318 332.15 263.113 328.739 263.113 328.739Z" fill="#FFB8B8"/>
<path d="M232.41 554.741L230.704 554.7L235.821 358.565L237.527 358.606L232.41 554.741Z" fill="#2F2E41"/>
<path d="M275.48 133.031C276.422 133.031 277.186 131.504 277.186 129.62C277.186 127.736 276.422 126.209 275.48 126.209C274.538 126.209 273.774 127.736 273.774 129.62C273.774 131.504 274.538 133.031 275.48 133.031Z" fill="#FFB8B8"/>
<path d="M225.16 133.031C226.102 133.031 226.866 131.504 226.866 129.62C226.866 127.736 226.102 126.209 225.16 126.209C224.218 126.209 223.454 127.736 223.454 129.62C223.454 131.504 224.218 133.031 225.16 133.031Z" fill="#FFB8B8"/>
<path d="M290.405 176.095C290.405 176.095 311.727 176.095 310.875 184.623C310.022 193.15 281.877 339.825 281.877 339.825C281.877 339.825 269.936 328.739 259.702 331.298L290.405 176.095Z" fill="#3F3D56"/>
<path d="M207.676 178.653C207.676 178.653 186.354 182.917 186.354 195.709C186.354 208.5 217.058 331.298 221.322 331.298C225.587 331.298 241.791 328.739 241.791 324.475C241.791 320.212 207.676 178.653 207.676 178.653Z" fill="#3F3D56"/>
<path opacity="0.2" d="M212.367 203.81L231.557 278.845C231.557 278.845 222.602 213.19 212.367 203.81Z" fill="black"/>
<path opacity="0.2" d="M287.008 193.266L267.6 291.371C267.6 291.371 273.803 198.926 287.008 193.266Z" fill="black"/>
<path d="M250.32 154.776C263.98 154.776 275.054 143.704 275.054 130.046C275.054 116.388 263.98 105.316 250.32 105.316C236.66 105.316 225.587 116.388 225.587 130.046C225.587 143.704 236.66 154.776 250.32 154.776Z" fill="#FFB8B8"/>
<path d="M272.989 104.888L254.502 95.2056L228.973 99.1667L223.691 122.492L236.839 121.987L240.512 113.417V121.846L246.579 121.612L250.1 107.969L252.301 122.492L273.87 122.052L272.989 104.888Z" fill="#2F2E41"/>
</g>
<defs>
<clipPath id="clip0">
<rect width="498" height="556" fill="white"/>
</clipPath>
</defs>
</svg>
